<mxfile host="app.diagrams.net" agent="Mozilla/5.0 (Windows NT 10.0; Win64; x64) AppleWebKit/537.36 (KHTML, like Gecko) Chrome/140.0.0.0 Safari/537.36" version="28.2.3">
  <diagram name="Page-1" id="A8gif9t88K-8BfV-KYZG">
    <mxGraphModel dx="1191" dy="764" grid="1" gridSize="10" guides="1" tooltips="1" connect="1" arrows="1" fold="1" page="1" pageScale="1" pageWidth="850" pageHeight="1100" math="0" shadow="0">
      <root>
        <mxCell id="0" />
        <mxCell id="1" parent="0" />
        <mxCell id="SFS-I_R82uOLM07TbGk4-1" value="Dut-A" style="rounded=1;whiteSpace=wrap;html=1;" vertex="1" parent="1">
          <mxGeometry x="80" y="320" width="80" height="160" as="geometry" />
        </mxCell>
        <mxCell id="SFS-I_R82uOLM07TbGk4-2" value="Dut-C" style="rounded=1;whiteSpace=wrap;html=1;" vertex="1" parent="1">
          <mxGeometry x="280" y="320" width="80" height="160" as="geometry" />
        </mxCell>
        <mxCell id="SFS-I_R82uOLM07TbGk4-3" value="Dut-F" style="rounded=1;whiteSpace=wrap;html=1;" vertex="1" parent="1">
          <mxGeometry x="480" y="320" width="80" height="160" as="geometry" />
        </mxCell>
        <mxCell id="SFS-I_R82uOLM07TbGk4-12" value="" style="group" vertex="1" connectable="0" parent="1">
          <mxGeometry x="160" y="340" width="120" height="40" as="geometry" />
        </mxCell>
        <mxCell id="SFS-I_R82uOLM07TbGk4-13" value="" style="endArrow=none;html=1;rounded=0;" edge="1" parent="SFS-I_R82uOLM07TbGk4-12">
          <mxGeometry width="50" height="50" relative="1" as="geometry">
            <mxPoint as="sourcePoint" />
            <mxPoint x="120" as="targetPoint" />
          </mxGeometry>
        </mxCell>
        <mxCell id="SFS-I_R82uOLM07TbGk4-14" value="" style="endArrow=none;html=1;rounded=0;entryX=0;entryY=0.25;entryDx=0;entryDy=0;" edge="1" parent="SFS-I_R82uOLM07TbGk4-12">
          <mxGeometry width="50" height="50" relative="1" as="geometry">
            <mxPoint y="10" as="sourcePoint" />
            <mxPoint x="120" y="10" as="targetPoint" />
          </mxGeometry>
        </mxCell>
        <mxCell id="SFS-I_R82uOLM07TbGk4-15" value="" style="endArrow=none;html=1;rounded=0;entryX=0;entryY=0.25;entryDx=0;entryDy=0;" edge="1" parent="SFS-I_R82uOLM07TbGk4-12">
          <mxGeometry width="50" height="50" relative="1" as="geometry">
            <mxPoint y="19.5" as="sourcePoint" />
            <mxPoint x="120" y="19.5" as="targetPoint" />
          </mxGeometry>
        </mxCell>
        <mxCell id="SFS-I_R82uOLM07TbGk4-16" value="" style="endArrow=none;html=1;rounded=0;entryX=0;entryY=0.25;entryDx=0;entryDy=0;" edge="1" parent="SFS-I_R82uOLM07TbGk4-12">
          <mxGeometry width="50" height="50" relative="1" as="geometry">
            <mxPoint y="40" as="sourcePoint" />
            <mxPoint x="120" y="40" as="targetPoint" />
          </mxGeometry>
        </mxCell>
        <mxCell id="SFS-I_R82uOLM07TbGk4-17" value="" style="endArrow=none;dashed=1;html=1;dashPattern=1 3;strokeWidth=2;rounded=0;" edge="1" parent="SFS-I_R82uOLM07TbGk4-12">
          <mxGeometry width="50" height="50" relative="1" as="geometry">
            <mxPoint x="20" y="30" as="sourcePoint" />
            <mxPoint x="40" y="30" as="targetPoint" />
            <Array as="points">
              <mxPoint x="30" y="30" />
            </Array>
          </mxGeometry>
        </mxCell>
        <mxCell id="SFS-I_R82uOLM07TbGk4-18" value="" style="endArrow=none;dashed=1;html=1;dashPattern=1 3;strokeWidth=2;rounded=0;" edge="1" parent="SFS-I_R82uOLM07TbGk4-12">
          <mxGeometry width="50" height="50" relative="1" as="geometry">
            <mxPoint x="80" y="30" as="sourcePoint" />
            <mxPoint x="100" y="30" as="targetPoint" />
            <Array as="points">
              <mxPoint x="90" y="30" />
            </Array>
          </mxGeometry>
        </mxCell>
        <mxCell id="SFS-I_R82uOLM07TbGk4-21" value="" style="group" vertex="1" connectable="0" parent="1">
          <mxGeometry x="160" y="420" width="320" height="40" as="geometry" />
        </mxCell>
        <mxCell id="SFS-I_R82uOLM07TbGk4-22" value="" style="endArrow=none;html=1;rounded=0;" edge="1" parent="SFS-I_R82uOLM07TbGk4-21">
          <mxGeometry width="50" height="50" relative="1" as="geometry">
            <mxPoint as="sourcePoint" />
            <mxPoint x="320" as="targetPoint" />
          </mxGeometry>
        </mxCell>
        <mxCell id="SFS-I_R82uOLM07TbGk4-23" value="" style="endArrow=none;html=1;rounded=0;entryX=0;entryY=0.25;entryDx=0;entryDy=0;" edge="1" parent="SFS-I_R82uOLM07TbGk4-21">
          <mxGeometry width="50" height="50" relative="1" as="geometry">
            <mxPoint y="10" as="sourcePoint" />
            <mxPoint x="320" y="10" as="targetPoint" />
          </mxGeometry>
        </mxCell>
        <mxCell id="SFS-I_R82uOLM07TbGk4-24" value="" style="endArrow=none;html=1;rounded=0;entryX=0;entryY=0.25;entryDx=0;entryDy=0;" edge="1" parent="SFS-I_R82uOLM07TbGk4-21">
          <mxGeometry width="50" height="50" relative="1" as="geometry">
            <mxPoint y="19.5" as="sourcePoint" />
            <mxPoint x="320" y="19.5" as="targetPoint" />
          </mxGeometry>
        </mxCell>
        <mxCell id="SFS-I_R82uOLM07TbGk4-25" value="" style="endArrow=none;html=1;rounded=0;entryX=0;entryY=0.25;entryDx=0;entryDy=0;" edge="1" parent="SFS-I_R82uOLM07TbGk4-21">
          <mxGeometry width="50" height="50" relative="1" as="geometry">
            <mxPoint y="40" as="sourcePoint" />
            <mxPoint x="320" y="40" as="targetPoint" />
          </mxGeometry>
        </mxCell>
        <mxCell id="SFS-I_R82uOLM07TbGk4-26" value="" style="endArrow=none;dashed=1;html=1;dashPattern=1 3;strokeWidth=2;rounded=0;" edge="1" parent="SFS-I_R82uOLM07TbGk4-21">
          <mxGeometry width="50" height="50" relative="1" as="geometry">
            <mxPoint x="53.33333333333333" y="30" as="sourcePoint" />
            <mxPoint x="106.66666666666666" y="30" as="targetPoint" />
            <Array as="points">
              <mxPoint x="80" y="30" />
            </Array>
          </mxGeometry>
        </mxCell>
        <mxCell id="SFS-I_R82uOLM07TbGk4-27" value="" style="endArrow=none;dashed=1;html=1;dashPattern=1 3;strokeWidth=2;rounded=0;" edge="1" parent="SFS-I_R82uOLM07TbGk4-21">
          <mxGeometry width="50" height="50" relative="1" as="geometry">
            <mxPoint x="213.33333333333331" y="30" as="sourcePoint" />
            <mxPoint x="266.66666666666663" y="30" as="targetPoint" />
            <Array as="points">
              <mxPoint x="240" y="30" />
            </Array>
          </mxGeometry>
        </mxCell>
        <mxCell id="SFS-I_R82uOLM07TbGk4-28" value="LSP Container 1" style="text;html=1;align=center;verticalAlign=middle;whiteSpace=wrap;rounded=0;" vertex="1" parent="1">
          <mxGeometry x="160" y="300" width="70" height="30" as="geometry" />
        </mxCell>
        <mxCell id="SFS-I_R82uOLM07TbGk4-30" value="LSP Container 2" style="text;html=1;align=center;verticalAlign=middle;whiteSpace=wrap;rounded=0;" vertex="1" parent="1">
          <mxGeometry x="160" y="470" width="70" height="30" as="geometry" />
        </mxCell>
        <mxCell id="SFS-I_R82uOLM07TbGk4-32" value="Dut-A" style="shape=cylinder3;whiteSpace=wrap;html=1;boundedLbl=1;backgroundOutline=1;size=15;" vertex="1" parent="1">
          <mxGeometry x="40" y="760" width="80" height="120" as="geometry" />
        </mxCell>
        <mxCell id="SFS-I_R82uOLM07TbGk4-34" value="Dut-B" style="shape=cylinder3;whiteSpace=wrap;html=1;boundedLbl=1;backgroundOutline=1;size=15;" vertex="1" parent="1">
          <mxGeometry x="200" y="640" width="80" height="120" as="geometry" />
        </mxCell>
        <mxCell id="SFS-I_R82uOLM07TbGk4-35" value="Dut-C" style="shape=cylinder3;whiteSpace=wrap;html=1;boundedLbl=1;backgroundOutline=1;size=15;" vertex="1" parent="1">
          <mxGeometry x="200" y="900" width="80" height="120" as="geometry" />
        </mxCell>
        <mxCell id="SFS-I_R82uOLM07TbGk4-36" value="Dut-D" style="shape=cylinder3;whiteSpace=wrap;html=1;boundedLbl=1;backgroundOutline=1;size=15;" vertex="1" parent="1">
          <mxGeometry x="400" y="640" width="80" height="120" as="geometry" />
        </mxCell>
        <mxCell id="SFS-I_R82uOLM07TbGk4-37" value="Dut-E" style="shape=cylinder3;whiteSpace=wrap;html=1;boundedLbl=1;backgroundOutline=1;size=15;" vertex="1" parent="1">
          <mxGeometry x="400" y="900" width="80" height="120" as="geometry" />
        </mxCell>
        <mxCell id="SFS-I_R82uOLM07TbGk4-38" value="Dut-F" style="shape=cylinder3;whiteSpace=wrap;html=1;boundedLbl=1;backgroundOutline=1;size=15;" vertex="1" parent="1">
          <mxGeometry x="560" y="760" width="80" height="120" as="geometry" />
        </mxCell>
        <mxCell id="SFS-I_R82uOLM07TbGk4-43" value="" style="endArrow=none;html=1;rounded=0;entryX=0;entryY=0;entryDx=0;entryDy=37.5;entryPerimeter=0;" edge="1" parent="1" target="SFS-I_R82uOLM07TbGk4-35">
          <mxGeometry width="50" height="50" relative="1" as="geometry">
            <mxPoint x="120" y="860" as="sourcePoint" />
            <mxPoint x="170" y="810" as="targetPoint" />
          </mxGeometry>
        </mxCell>
        <mxCell id="SFS-I_R82uOLM07TbGk4-44" value="" style="endArrow=none;html=1;rounded=0;entryX=0.009;entryY=0.789;entryDx=0;entryDy=0;entryPerimeter=0;" edge="1" parent="1" target="SFS-I_R82uOLM07TbGk4-34">
          <mxGeometry width="50" height="50" relative="1" as="geometry">
            <mxPoint x="120" y="790" as="sourcePoint" />
            <mxPoint x="170" y="740" as="targetPoint" />
          </mxGeometry>
        </mxCell>
        <mxCell id="SFS-I_R82uOLM07TbGk4-45" value="" style="endArrow=none;html=1;rounded=0;entryX=0;entryY=0;entryDx=0;entryDy=82.5;entryPerimeter=0;exitX=1;exitY=0;exitDx=0;exitDy=82.5;exitPerimeter=0;" edge="1" parent="1">
          <mxGeometry width="50" height="50" relative="1" as="geometry">
            <mxPoint x="280" y="681.5" as="sourcePoint" />
            <mxPoint x="400" y="681.5" as="targetPoint" />
          </mxGeometry>
        </mxCell>
        <mxCell id="SFS-I_R82uOLM07TbGk4-46" value="" style="endArrow=none;html=1;rounded=0;entryX=0;entryY=0;entryDx=0;entryDy=82.5;entryPerimeter=0;exitX=1;exitY=0;exitDx=0;exitDy=82.5;exitPerimeter=0;" edge="1" parent="1">
          <mxGeometry width="50" height="50" relative="1" as="geometry">
            <mxPoint x="280" y="980" as="sourcePoint" />
            <mxPoint x="400" y="980" as="targetPoint" />
          </mxGeometry>
        </mxCell>
        <mxCell id="SFS-I_R82uOLM07TbGk4-47" value="" style="endArrow=none;html=1;rounded=0;entryX=0;entryY=0;entryDx=0;entryDy=37.5;entryPerimeter=0;" edge="1" parent="1" target="SFS-I_R82uOLM07TbGk4-38">
          <mxGeometry width="50" height="50" relative="1" as="geometry">
            <mxPoint x="480" y="740" as="sourcePoint" />
            <mxPoint x="530" y="690" as="targetPoint" />
          </mxGeometry>
        </mxCell>
        <mxCell id="SFS-I_R82uOLM07TbGk4-48" value="" style="endArrow=none;html=1;rounded=0;" edge="1" parent="1" target="SFS-I_R82uOLM07TbGk4-38">
          <mxGeometry width="50" height="50" relative="1" as="geometry">
            <mxPoint x="480" y="940" as="sourcePoint" />
            <mxPoint x="530" y="890" as="targetPoint" />
          </mxGeometry>
        </mxCell>
        <mxCell id="SFS-I_R82uOLM07TbGk4-49" value="" style="endArrow=none;html=1;rounded=0;entryX=0;entryY=0;entryDx=0;entryDy=37.5;entryPerimeter=0;" edge="1" parent="1" target="SFS-I_R82uOLM07TbGk4-37">
          <mxGeometry width="50" height="50" relative="1" as="geometry">
            <mxPoint x="280" y="720" as="sourcePoint" />
            <mxPoint x="330" y="670" as="targetPoint" />
          </mxGeometry>
        </mxCell>
        <mxCell id="SFS-I_R82uOLM07TbGk4-50" value="" style="endArrow=none;html=1;rounded=0;entryX=0;entryY=0;entryDx=0;entryDy=82.5;entryPerimeter=0;" edge="1" parent="1" target="SFS-I_R82uOLM07TbGk4-36">
          <mxGeometry width="50" height="50" relative="1" as="geometry">
            <mxPoint x="280" y="938" as="sourcePoint" />
            <mxPoint x="350" y="780" as="targetPoint" />
          </mxGeometry>
        </mxCell>
        <mxCell id="SFS-I_R82uOLM07TbGk4-53" value="" style="shape=flexArrow;endArrow=classic;html=1;rounded=0;fillColor=#dae8fc;strokeColor=#6c8ebf;endWidth=58;endSize=13;exitX=1.007;exitY=0.569;exitDx=0;exitDy=0;exitPerimeter=0;entryX=0;entryY=0.5;entryDx=0;entryDy=0;entryPerimeter=0;width=43;" edge="1" parent="1">
          <mxGeometry width="50" height="50" relative="1" as="geometry">
            <mxPoint x="119.99999999999994" y="828.28" as="sourcePoint" />
            <mxPoint x="559.44" y="830" as="targetPoint" />
            <Array as="points" />
          </mxGeometry>
        </mxCell>
        <mxCell id="SFS-I_R82uOLM07TbGk4-58" value="lsp-container 2" style="edgeLabel;html=1;align=center;verticalAlign=middle;resizable=0;points=[];labelBackgroundColor=none;" vertex="1" connectable="0" parent="SFS-I_R82uOLM07TbGk4-53">
          <mxGeometry x="-0.2206" y="2" relative="1" as="geometry">
            <mxPoint x="-131" y="3" as="offset" />
          </mxGeometry>
        </mxCell>
        <mxCell id="SFS-I_R82uOLM07TbGk4-57" value="" style="group" vertex="1" connectable="0" parent="1">
          <mxGeometry x="99.9980592228744" y="879.9980592228744" width="91.92388155425118" height="91.92388155425124" as="geometry" />
        </mxCell>
        <mxCell id="SFS-I_R82uOLM07TbGk4-51" value="" style="shape=flexArrow;endArrow=classic;html=1;rounded=0;fillColor=#d5e8d4;strokeColor=#82b366;width=22;endSize=11.05;" edge="1" parent="SFS-I_R82uOLM07TbGk4-57">
          <mxGeometry width="50" height="50" relative="1" as="geometry">
            <mxPoint x="5.961940777125591" y="10.96194077712562" as="sourcePoint" />
            <mxPoint x="85.96194077712559" y="86.6762264914114" as="targetPoint" />
            <Array as="points">
              <mxPoint x="55.96194077712559" y="60.96194077712562" />
            </Array>
          </mxGeometry>
        </mxCell>
        <mxCell id="SFS-I_R82uOLM07TbGk4-52" value="lsp-container 1" style="text;html=1;align=center;verticalAlign=middle;resizable=0;points=[];autosize=1;strokeColor=none;fillColor=none;rotation=45;" vertex="1" parent="SFS-I_R82uOLM07TbGk4-57">
          <mxGeometry x="-4.038059222874409" y="30.96194077712562" width="100" height="30" as="geometry" />
        </mxCell>
      </root>
    </mxGraphModel>
  </diagram>
</mxfile>
